<?xml version="1.0" encoding="utf-8"?>
<!-- Generator: Adobe Illustrator 22.0.1, SVG Export Plug-In . SVG Version: 6.00 Build 0)  -->
<svg version="1.1" id="Capa_1" xmlns="http://www.w3.org/2000/svg" xmlns:xlink="http://www.w3.org/1999/xlink" x="0px" y="0px"
	 viewBox="0 0 512 512" style="enable-background:new 0 0 512 512;" xml:space="preserve">
<style type="text/css">
	.st0{fill:#98DB8D;}
	.st1{fill:#669B5D;}
	.st2{fill:#5E7F57;}
	.st3{fill:#303030;}
	.st4{fill:#FFFFFF;}
	.st5{opacity:8.000000e-02;fill:#1D1D1B;}
</style>
<g>
	<path class="st0" d="M307.3,457.1l5.3-58.1h15c23.7,19.2,61.7,32.8,90.7,31.3c65.5-3.3,69.2-84.6,63-112c-1.3-5.7-9.2-6.4-11.5-1
		l0,0c-9,20.9-28.1,72.9-71.8,60.6c-64.6-18-60.4-185.1-147.1-193.9c-86.7-8.7-102.6,118.2-130.5,107.7
		c-28.7-10.7,12-140.3,12-140.3s46.9,9.8,69.9-7.5c9.6-7.2,15.4-18.5,16.2-28.4c2.5-30.3-35.3-63.5-74.3-65.7
		c-4.1-0.2-41.5-5.9-61.6,24.9s-7,58.3-6.1,60c-0.5,9.1-10,54-13,71.8c-14.2,82.7-43.2,103-32.7,134.2
		c16.4,49.1,78.6,54.4,78.6,54.4h0.2l5.4,61.8c0.3,3.3,3,5.8,6.3,5.8h35.3c3.3,0,6-2.5,6.3-5.8l5.3-61.1l85.9,1.4l5.3,59.7
		c0.3,3.3,3,5.7,6.3,5.7H301C304.3,462.8,307,460.3,307.3,457.1z"/>
	<path class="st1" d="M196.2,138.7l-28.3,5.6c-3.7,0.7-6,4.3-5.2,8l1.3,6c0.9,4.1,5.3,6.4,9.2,4.8l27.1-11.6
		C207.5,148.3,204.1,137.2,196.2,138.7z"/>
	<path class="st2" d="M191.3,145.6l26.1,10c3.4,1.3,6.9,0.2,7.9-2.5l1.6-4.4c1.1-3-1.6-6.5-5.5-7.4l-27.7-5.6
		C186.2,134.2,184.1,142.8,191.3,145.6z"/>
	<ellipse class="st0" cx="189.9" cy="136.3" rx="17.9" ry="9.5"/>
	<g>
		<ellipse class="st3" cx="149.3" cy="89.5" rx="11.7" ry="18.4"/>
		<ellipse class="st4" cx="145.7" cy="81.4" rx="5.1" ry="6.4"/>
	</g>
	<path class="st5" d="M108.7,386c-10.4-6.3-17.4-1.9-30.5-9c-26.1-14.1-32.2-49.5-33-54.7c-3.9-24.7,5.1-39.2,14.1-58.7
		c1.2-2.8,2.5-5.7,3.8-8.7c11.5-34.1,25.5-68.1,18.5-105.1c-0.9-4.3-2.6-9.8-5.2-14c-1.1,11.1-10,53.5-12.9,70.7
		c-14.2,82.7-43.2,103-32.7,134.2c16.4,49.1,78.6,54.4,78.6,54.4h0.2l5.4,61.8c0.3,3.3,3,5.8,6.3,5.8h9.5
		C137.5,438,129.5,398.7,108.7,386z"/>
	<path class="st5" d="M274.9,462.6c5.5-19,0.2-57.2-16.3-62.8c-1-0.4-2.5-0.7-4.3-0.7l5.1,57.8c0.3,3.3,3,5.7,6.3,5.7H274.9z"/>
	<path class="st5" d="M376.9,408.1c-16.1-9.5-38.4-13.2-50.5-9.1h1.2c18.7,15.1,46.3,26.8,71.3,30.3
		C394,421.9,386.9,414.1,376.9,408.1z"/>
</g>
</svg>
